<?xml version="1.0" standalone="no"?>
<!DOCTYPE svg PUBLIC "-//W3C//DTD SVG 20010904//EN"
 "http://www.w3.org/TR/2001/REC-SVG-20010904/DTD/svg10.dtd">
<svg version="1.0" xmlns="http://www.w3.org/2000/svg"
 width="284.000000pt" height="303.000000pt" viewBox="0 0 284.000000 303.000000"
 preserveAspectRatio="xMidYMid meet">
<metadata>
Created by potrace 1.16, written by Peter Selinger 2001-2019
</metadata>
<g transform="translate(0.000000,303.000000) scale(0.100000,-0.100000)"
fill="#000000" stroke="none">
<path d="M770 2284 c-18 -5 -43 -52 -59 -110 -7 -27 -11 -145 -10 -330 1 -255
3 -294 19 -334 12 -30 20 -82 24 -158 3 -78 10 -121 20 -137 9 -13 18 -42 22
-65 4 -22 11 -43 15 -46 5 -3 9 -43 9 -88 0 -52 6 -97 15 -119 8 -20 15 -47
15 -60 0 -40 44 -68 167 -109 65 -21 146 -50 180 -63 69 -28 138 -32 167 -10
11 8 29 15 40 15 10 0 90 41 177 90 86 50 162 90 168 90 29 0 111 66 111 89 0
9 12 43 26 76 14 33 41 104 60 158 40 114 45 207 18 323 -16 67 -16 73 0 105
10 19 25 52 33 74 15 41 19 61 47 240 9 55 20 118 26 140 16 66 12 173 -7 206
-15 25 -23 29 -63 29 -64 0 -92 -22 -219 -177 -58 -72 -153 -142 -215 -160
-28 -8 -69 -23 -91 -32 -22 -10 -61 -26 -87 -35 -25 -9 -52 -23 -58 -31 -12
-14 -56 -12 -117 7 -46 13 -112 92 -161 191 -49 97 -113 185 -158 216 -28 19
-74 25 -114 15z m91 -74 c21 -12 86 -98 109 -145 8 -16 30 -56 48 -88 21 -36
39 -87 47 -130 19 -98 44 -167 62 -167 25 0 10 -42 -22 -59 -50 -27 -79 -50
-72 -57 4 -4 15 0 25 9 10 10 31 17 45 17 25 0 27 -3 27 -39 0 -40 23 -76 41
-66 12 8 11 52 -2 76 -13 25 12 69 40 69 18 0 37 -45 43 -100 2 -17 10 -26 26
-28 26 -4 31 -42 7 -66 -9 -9 -11 -17 -5 -21 5 -3 10 -18 10 -31 0 -16 5 -24
13 -22 9 4 13 53 15 194 1 103 6 192 11 197 5 5 13 -5 19 -22 6 -17 16 -31 23
-31 8 0 10 -16 5 -57 -12 -104 -12 -173 0 -173 7 0 19 -11 28 -25 18 -27 7
-35 -14 -10 -17 21 -30 19 -30 -5 0 -11 7 -20 15 -20 18 0 18 -5 5 -31 -7 -13
-7 -19 0 -19 5 0 10 4 10 9 0 12 53 21 64 11 5 -5 3 -31 -4 -59 -13 -54 -6
-121 12 -121 6 0 8 11 5 26 -5 27 25 107 49 132 17 16 18 29 4 37 -6 3 -7 23
-4 44 4 27 0 47 -15 74 -11 20 -16 39 -12 42 14 8 1 45 -15 45 -8 0 -14 -8
-14 -18 0 -10 -7 -27 -15 -38 -8 -10 -15 -37 -15 -59 -1 -38 -1 -39 -16 -20
-18 22 -14 89 7 140 16 38 18 75 7 99 -11 21 -2 86 12 86 6 0 10 -9 10 -20 0
-12 8 -37 19 -58 10 -20 22 -56 26 -80 5 -32 13 -46 31 -54 15 -7 23 -19 22
-32 -1 -12 2 -47 6 -78 7 -56 17 -70 32 -47 9 15 72 2 108 -24 17 -12 44 -20
62 -20 25 1 35 -4 39 -18 11 -33 48 -52 77 -38 37 16 33 73 -7 105 -36 29 -45
30 -45 5 0 -11 -4 -23 -10 -26 -5 -3 -10 -1 -10 5 0 11 -9 24 -43 61 -10 11
-15 24 -12 29 3 5 -15 28 -40 52 -25 23 -45 48 -45 54 0 7 -5 14 -11 16 -6 2
0 12 12 23 20 18 22 18 16 2 -6 -15 -3 -17 14 -12 13 4 25 1 32 -8 7 -8 27
-23 45 -33 32 -18 32 -18 54 4 19 19 20 22 5 22 -10 0 -17 8 -17 20 0 22 -37
60 -59 60 -9 0 -27 9 -41 20 -14 11 -34 20 -45 20 -33 1 -55 25 -55 59 0 17 3
31 8 31 4 0 12 10 17 22 16 34 44 46 59 26 8 -11 27 -18 47 -19 19 0 52 -4 74
-8 48 -9 96 4 88 25 -3 8 0 14 6 14 19 0 12 27 -11 43 -19 13 -20 16 -6 16 9
1 20 -3 23 -9 11 -19 23 -10 23 17 -1 15 5 29 11 31 7 2 16 15 21 28 12 30 32
32 25 2 -4 -21 -14 -77 -31 -183 -3 -22 -12 -54 -20 -72 -8 -17 -14 -38 -14
-47 0 -9 -9 -33 -20 -53 -24 -45 -26 -114 -5 -173 19 -55 19 -169 0 -194 -8
-11 -15 -29 -15 -41 0 -12 -6 -30 -14 -40 -12 -16 -16 -17 -30 -6 -13 11 -19
11 -31 1 -8 -7 -15 -19 -15 -28 0 -25 -41 -83 -67 -93 -13 -5 -22 -13 -18 -19
3 -5 -19 -21 -50 -34 -31 -15 -55 -32 -55 -41 0 -8 4 -15 8 -15 5 0 9 -7 9
-15 0 -20 -9 -19 -52 6 -34 21 -65 20 -65 -1 0 -5 8 -10 18 -10 10 0 22 -4 28
-9 5 -5 22 -11 37 -13 37 -4 33 -22 -6 -26 -17 -1 -36 -7 -41 -12 -13 -13 -56
-13 -56 0 0 5 8 13 18 19 13 7 14 13 5 21 -14 15 -26 8 -98 -58 l-57 -52 26
-35 c14 -18 26 -36 26 -38 0 -10 -94 -37 -126 -37 -35 0 -104 28 -104 42 0 4
8 8 19 8 10 0 37 7 60 15 22 8 41 10 41 5 0 -6 5 -10 10 -10 6 0 10 40 10 100
l0 100 -35 22 c-19 13 -35 26 -35 31 0 4 20 7 44 7 34 0 49 6 67 25 13 13 30
25 37 25 6 0 12 5 12 10 0 6 -7 10 -15 10 -17 0 -21 16 -5 22 6 2 6 9 0 17 -7
12 -14 13 -33 4 -32 -15 -37 -9 -37 47 0 72 -27 88 -75 44 -33 -30 -39 -24
-55 49 -13 64 -32 98 -74 135 -50 43 -69 47 -121 22 -50 -24 -74 -55 -56 -73
6 -6 11 -25 11 -42 0 -63 56 -105 139 -105 55 0 65 -13 60 -69 -2 -19 5 -38
23 -60 20 -24 26 -39 22 -59 -4 -22 2 -35 30 -65 38 -41 55 -79 37 -85 -6 -2
-11 -10 -11 -17 0 -22 -52 -48 -97 -48 -24 0 -43 -4 -43 -9 0 -16 -54 -4 -68
15 -15 19 -42 23 -42 5 0 -6 -3 -8 -6 -5 -4 4 -2 12 4 19 8 10 3 14 -20 15
-17 1 -40 -2 -52 -8 -17 -8 -16 -7 4 10 23 20 24 22 8 35 -19 14 -24 36 -8 36
5 0 16 12 24 27 20 39 -3 73 -51 73 -20 0 -32 4 -28 10 9 15 48 12 81 -5 26
-13 30 -13 41 1 21 28 1 58 -43 64 -51 7 -110 35 -118 55 -12 32 -6 75 14 95
11 11 20 31 20 44 0 14 4 28 10 31 5 3 10 14 10 25 0 13 -5 17 -21 13 -15 -4
-22 0 -26 16 -3 13 -11 20 -19 17 -17 -6 -38 30 -30 51 4 9 3 21 -2 27 -30 39
-41 108 -43 261 -4 303 -2 335 23 385 13 25 28 48 33 52 6 4 6 8 1 8 -12 0 14
30 26 30 5 0 18 -5 29 -10z"/>
</g>
</svg>
